<svg width="24" height="24" viewBox="0 0 24 24" fill="none" xmlns="http://www.w3.org/2000/svg">
<path d="M21.7444 11.6766C21.5784 6.56812 17.4319 2.42155 12.3234 2.25562C10.9897 2.21262 9.66128 2.44363 8.42035 2.93436C7.17942 3.4251 6.05232 4.16514 5.10873 5.10873C4.16514 6.05232 3.4251 7.17942 2.93436 8.42035C2.44363 9.66128 2.21262 10.9897 2.25562 12.3234C2.42155 17.4319 6.56812 21.5784 11.6766 21.7444C13.0103 21.7874 14.3387 21.5564 15.5796 21.0656C16.8206 20.5749 17.9477 19.8348 18.8913 18.8913C19.8348 17.9477 20.5749 16.8206 21.0656 15.5796C21.5564 14.3387 21.7874 13.0103 21.7444 11.6766ZM18.5981 13.2628L16.3997 16.3406C16.3258 16.444 16.2283 16.5282 16.1153 16.5863C16.0023 16.6444 15.877 16.6747 15.75 16.6747C15.6229 16.6747 15.4977 16.6444 15.3847 16.5863C15.2717 16.5282 15.1742 16.444 15.1003 16.3406L12 12L8.89968 16.3406C8.82577 16.444 8.72826 16.5282 8.61527 16.5863C8.50228 16.6444 8.37705 16.6747 8.24999 16.6747C8.12293 16.6747 7.99771 16.6444 7.88471 16.5863C7.77172 16.5282 7.67422 16.444 7.6003 16.3406L5.40187 13.2628C5.31663 13.1434 5.26593 13.0028 5.25532 12.8565C5.24471 12.7102 5.2746 12.5638 5.34172 12.4333C5.40883 12.3029 5.51058 12.1934 5.63579 12.117C5.761 12.0405 5.90485 12.0001 6.05155 12H12L9.15187 8.0128C9.06664 7.8934 9.01593 7.75283 9.00532 7.60651C8.99471 7.46019 9.0246 7.31378 9.09172 7.18333C9.15883 7.05288 9.26058 6.94343 9.38579 6.86699C9.511 6.79055 9.65485 6.75007 9.80155 6.74999H14.1984C14.3451 6.75007 14.489 6.79055 14.6142 6.86699C14.7394 6.94343 14.8412 7.05288 14.9083 7.18333C14.9754 7.31378 15.0053 7.46019 14.9947 7.60651C14.9841 7.75283 14.9333 7.8934 14.8481 8.0128L12 12H17.9484C18.0951 12.0001 18.239 12.0405 18.3642 12.117C18.4894 12.1934 18.5912 12.3029 18.6583 12.4333C18.7254 12.5638 18.7553 12.7102 18.7447 12.8565C18.7341 13.0028 18.6833 13.1434 18.5981 13.2628Z" fill="#AEAEB2"/>
</svg>
