<svg width="41" height="40" viewBox="0 0 41 40" fill="none" xmlns="http://www.w3.org/2000/svg">
<path d="M26.125 11.25C25.0554 11.2493 23.9906 11.3928 22.9594 11.6765C22.5523 11.0123 22.0578 10.4058 21.4891 9.87339L22.975 7.75308C23.0692 7.61858 23.136 7.46684 23.1715 7.30654C23.207 7.14623 23.2107 6.98049 23.1821 6.81879C23.1536 6.65708 23.0936 6.50258 23.0053 6.36409C22.9171 6.22561 22.8025 6.10586 22.668 6.01167C22.5335 5.91749 22.3817 5.85072 22.2214 5.81518C22.0611 5.77964 21.8954 5.77602 21.7337 5.80453C21.572 5.83304 21.4175 5.89312 21.279 5.98135C21.1405 6.06957 21.0207 6.1842 20.9266 6.31871L19.4406 8.43746C18.2187 7.82048 16.8689 7.49935 15.5 7.49996C15.4078 7.49996 15.3188 7.49996 15.2281 7.49996L14.7766 4.95464C14.7529 4.78879 14.6961 4.6294 14.6095 4.48593C14.523 4.34247 14.4086 4.21786 14.2729 4.11951C14.1373 4.02116 13.9833 3.95108 13.82 3.91344C13.6568 3.87579 13.4876 3.87135 13.3226 3.90036C13.1576 3.92938 13.0001 3.99128 12.8595 4.08236C12.7189 4.17345 12.598 4.29188 12.5041 4.4306C12.4102 4.56932 12.3451 4.72551 12.3127 4.88989C12.2803 5.05426 12.2813 5.22347 12.3156 5.38746L12.7656 7.94058C11.3793 8.39911 10.1295 9.19669 9.12969 10.2609L7.00156 8.77183C6.86717 8.67533 6.71495 8.60648 6.55375 8.56925C6.39254 8.53203 6.22554 8.52718 6.06244 8.55498C5.89935 8.58279 5.74339 8.6427 5.60362 8.73123C5.46385 8.81977 5.34305 8.93517 5.24822 9.07075C5.15339 9.20632 5.08641 9.35938 5.05118 9.52103C5.01595 9.68269 5.01316 9.84973 5.04298 10.0125C5.0728 10.1752 5.13462 10.3304 5.22488 10.4691C5.31513 10.6077 5.43202 10.7271 5.56875 10.8203L7.6875 12.3078C7.06835 13.5295 6.74709 14.8803 6.75 16.25C6.75 16.339 6.75 16.4296 6.75 16.5187L4.20469 16.9687C3.89661 17.0227 3.61995 17.1902 3.42933 17.4382C3.23872 17.6861 3.148 17.9966 3.17508 18.3082C3.20215 18.6198 3.34507 18.9099 3.5756 19.1213C3.80614 19.3327 4.10754 19.4499 4.42031 19.45C4.49311 19.4499 4.56577 19.4436 4.6375 19.4312L7.1875 18.9812C7.41155 19.6634 7.71909 20.3152 8.10313 20.9218C6.90749 22.0324 6.07396 23.4773 5.7111 25.0682C5.34823 26.6592 5.47284 28.3226 6.06871 29.8418C6.66457 31.3609 7.70407 32.6655 9.05183 33.5855C10.3996 34.5055 11.9932 34.9984 13.625 35H26.125C29.2745 35 32.2949 33.7488 34.5219 31.5218C36.7489 29.2949 38 26.2744 38 23.125C38 19.9755 36.7489 16.9551 34.5219 14.7281C32.2949 12.5011 29.2745 11.25 26.125 11.25ZM15.0188 18.8687C13.3755 18.5851 11.6849 18.8125 10.175 19.5203C9.33952 18.1403 9.06998 16.4907 9.42275 14.9166C9.77552 13.3425 10.7233 11.9657 12.0678 11.0743C13.4123 10.1828 15.0494 9.84579 16.6367 10.1336C18.224 10.4215 19.6385 11.3119 20.5844 12.6187C18.0345 13.9606 16.0573 16.181 15.0188 18.8687Z" fill="white"/>
</svg>