<svg width="28" height="29" viewBox="0 0 28 29" fill="none" xmlns="http://www.w3.org/2000/svg">
<path d="M11.25 14.75H2.25C2.14718 14.7502 2.04542 14.7293 1.95103 14.6885C1.85664 14.6478 1.77163 14.5881 1.7013 14.5131C1.63096 14.4381 1.5768 14.3494 1.54217 14.2526C1.50754 14.1558 1.49319 14.0529 1.5 13.9503C1.51659 13.7571 1.60583 13.5774 1.74972 13.4474C1.89361 13.3175 2.08144 13.2469 2.27531 13.25H10.5C10.6028 13.2502 10.7046 13.2293 10.799 13.1885C10.8934 13.1478 10.9784 13.0881 11.0487 13.0131C11.119 12.9381 11.1732 12.8494 11.2078 12.7526C11.2425 12.6558 11.2568 12.5529 11.25 12.4503C11.2334 12.2571 11.1442 12.0774 11.0003 11.9474C10.8564 11.8175 10.6686 11.7469 10.4747 11.75H8.65219C8.59801 11.7506 8.54436 11.7394 8.49491 11.7172C8.44547 11.6951 8.40141 11.6625 8.36578 11.6217C8.33014 11.5809 8.30376 11.5328 8.28847 11.4809C8.27318 11.4289 8.26933 11.3742 8.27719 11.3206C8.35946 10.7517 8.60347 10.2184 8.98016 9.78414C9.35685 9.34991 9.85037 9.03305 10.402 8.87126C10.9536 8.70948 11.5401 8.70958 12.0916 8.87156C12.6432 9.03354 13.1366 9.35058 13.5131 9.78495C13.8897 10.2193 14.1335 10.7527 14.2156 11.3217C14.2976 11.8906 14.2145 12.4712 13.9761 12.9943C13.7377 13.5174 13.354 13.9609 12.8707 14.2722C12.3874 14.5834 11.8249 14.7493 11.25 14.75ZM22.4925 14.5353C22.4397 13.7972 22.116 13.1047 21.5836 12.5908C21.0512 12.0769 20.3476 11.7779 19.6081 11.7513C18.8686 11.7247 18.1454 11.9723 17.5774 12.4465C17.0094 12.9208 16.6367 13.5882 16.5309 14.3206C16.5231 14.3742 16.5269 14.4289 16.5422 14.4809C16.5575 14.5328 16.5839 14.5809 16.6195 14.6217C16.6552 14.6625 16.6992 14.6951 16.7487 14.7172C16.7981 14.7394 16.8518 14.7506 16.9059 14.75H18.7284C18.922 14.7474 19.1094 14.8182 19.2528 14.9481C19.3963 15.078 19.4853 15.2575 19.5019 15.4503C19.5087 15.5529 19.4943 15.6558 19.4597 15.7526C19.4251 15.8494 19.3709 15.9381 19.3006 16.0131C19.2302 16.0881 19.1452 16.1478 19.0508 16.1885C18.9565 16.2293 18.8547 16.2502 18.7519 16.25H3.02531C2.83144 16.2469 2.64361 16.3175 2.49972 16.4474C2.35583 16.5774 2.26659 16.7571 2.25 16.9503C2.24319 17.0529 2.25754 17.1558 2.29217 17.2526C2.3268 17.3494 2.38096 17.4381 2.4513 17.5131C2.52163 17.5881 2.60664 17.6478 2.70103 17.6885C2.79542 17.7293 2.89718 17.7502 3 17.75H19.5C19.9121 17.75 20.3197 17.6652 20.6976 17.5007C21.0754 17.3362 21.4153 17.0957 21.696 16.7941C21.9768 16.4925 22.1924 16.1362 22.3295 15.7476C22.4665 15.359 22.522 14.9463 22.4925 14.5353ZM14.25 19.25H3.77531C3.58144 19.2469 3.39361 19.3175 3.24972 19.4474C3.10583 19.5774 3.01659 19.7571 3 19.9503C2.99319 20.0529 3.00754 20.1558 3.04217 20.2526C3.0768 20.3494 3.13096 20.4381 3.2013 20.5131C3.27163 20.5881 3.35664 20.6478 3.45103 20.6885C3.54542 20.7293 3.64718 20.7502 3.75 20.75H13.4747C13.6682 20.7474 13.8556 20.8182 13.9991 20.9481C14.1426 21.078 14.2316 21.2574 14.2481 21.4503C14.2549 21.5529 14.2406 21.6558 14.206 21.7526C14.1713 21.8494 14.1172 21.9381 14.0468 22.0131C13.9765 22.0881 13.8915 22.1478 13.7971 22.1885C13.7027 22.2293 13.6009 22.2502 13.4981 22.25H11.6522C11.598 22.2494 11.5444 22.2606 11.4949 22.2827C11.4455 22.3049 11.4014 22.3375 11.3658 22.3783C11.3301 22.4191 11.3038 22.4671 11.2885 22.5191C11.2732 22.5711 11.2693 22.6258 11.2772 22.6794C11.3595 23.2483 11.6035 23.7816 11.9802 24.2159C12.3568 24.6501 12.8504 24.9669 13.402 25.1287C13.9536 25.2905 14.5401 25.2904 15.0916 25.1284C15.6432 24.9664 16.1366 24.6494 16.5131 24.215C16.8897 23.7807 17.1335 23.2473 17.2156 22.6783C17.2976 22.1094 17.2145 21.5288 16.9761 21.0057C16.7377 20.4826 16.354 20.0391 15.8707 19.7278C15.3874 19.4166 14.8249 19.2507 14.25 19.25Z" fill="#AEAEB2"/>
</svg>